<?xml version="1.0" standalone="no"?><!DOCTYPE svg PUBLIC "-//W3C//DTD SVG 1.1//EN" "http://www.w3.org/Graphics/SVG/1.1/DTD/svg11.dtd"><svg t="1774511607562" class="icon" viewBox="0 0 1024 1024" version="1.1" xmlns="http://www.w3.org/2000/svg" p-id="11262" xmlns:xlink="http://www.w3.org/1999/xlink" width="200" height="200"><path d="M167.902006 499.35912c49.670544-117.987207 157.307996-194.575394 298.068804-200.785248C852.670777 281.513336 880.950447 739.502415 823.840499 821.774688c-122.127109 175.941695-573.376428 200.785247-685.153782-14.489657-7.451824-14.34476-44.205874-133.520119 29.215289-307.925911z" fill="#734838" p-id="11263"></path><path d="M848.994544 544.061782c-18.948331-60.036859-79.022449-45.899094-106.693555-31.326639l26.60301 181.029635c29.401584-6.396149 103.770784-74.658993 80.090545-149.702996zM121.506124 556.481488c18.948331-60.036859 79.022449-45.899094 106.693554-31.326639l-26.60301 181.029635c-29.401584-6.396149-103.774924-74.658993-80.090544-149.702996z" fill="#FFD7C9" p-id="11264"></path><path d="M161.456178 699.705537c0 172.621494 156.496576 279.443385 329.12221 279.443386 172.621494 0 329.122209-106.821891 329.122209-279.443386 0-172.625634-146.966521-345.681817-329.122209-345.681817-204.925149 0-329.122209 173.056184-329.12221 345.681817z" fill="#FFE2D8" p-id="11265"></path><path d="M331.19216 594.138036c0 13.715495-24.09423 24.839412-53.818726 24.839412s-53.818726-11.123917-53.818726-24.839412c0-13.719635 24.09423-24.839412 53.818726-24.839412s53.818726 11.119777 53.818726 24.839412zM712.063145 594.138036c0 13.715495-24.09423 24.839412-53.818726 24.839412s-53.818726-11.123917-53.818726-24.839412c0-13.719635 24.09423-24.839412 53.818726-24.839412s53.818726 11.119777 53.818726 24.839412z" fill="#FF8F8E" opacity=".5" p-id="11266"></path><path d="M401.570494 529.969555c0 21.717926-17.607003 39.329069-39.329069 39.329069s-39.329069-17.611143-39.329069-39.329069a39.329069 39.329069 0 0 1 39.329069-39.329069 39.329069 39.329069 0 0 1 39.329069 39.329069zM604.425693 529.969555a39.329069 39.329069 0 1 1-78.658138 0 39.329069 39.329069 0 0 1 78.658138 0z" fill="#FFFFFF" p-id="11267"></path><path d="M389.150788 540.31931a24.839412 24.839412 0 1 1-49.678824 0 24.839412 24.839412 0 0 1 49.678824 0zM592.005987 540.31931a24.839412 24.839412 0 1 1-49.678824 0 24.839412 24.839412 0 0 1 49.678824 0z" fill="#000000" p-id="11268"></path><path d="M484.368535 550.669065c0 5.713065-9.269241 10.349755-20.69951 10.349755s-20.69951-4.63669-20.69951-10.349755c0-5.717205 9.269241-10.349755 20.69951-10.349755s20.69951 4.63255 20.69951 10.349755z" fill="#FFB2B2" p-id="11269"></path><path d="M340.626997 478.113143c-7.373165 6.209853 21.833843-10.304216 51.748775 0 9.024986 3.109066-12.419706-33.119216-51.748775 0zM592.200562 461.160244c7.373165 6.209853-21.833843-10.304216-51.748775 0-9.024986 3.109066 12.419706-33.115076 51.748775 0z" fill="#734838" p-id="11270"></path><path d="M455.385081 366.381327c-64.168481 0-270.190704 229.764561-244.254219 151.106424 21.390874-64.859845 100.185629-197.059335 244.254219-206.995101 144.06859-9.935765 268.406407 133.855452 308.426839 206.995101-33.119216 43.468971-250.132879-151.106423-308.426839-151.106424z" fill="#734838" p-id="11271"></path><path d="M281.513336 484.368535c18.629559 11.041119 77.416167 1.241971 163.52613-117.987208C380.870984 366.381327 281.513336 484.368535 281.513336 484.368535z" fill="#734838" p-id="11272"></path><path d="M604.603708 621.196436c-5.940759-30.320642-258.338165-28.987594-262.974855 1.784297-4.63669 30.771892 38.513508 114.741524 126.180074 118.061726 86.16378 3.266383 142.735541-89.529521 136.794781-119.846023z" fill="#A24435" p-id="11273"></path><path d="M467.374237 673.615875c-54.005022 1.734619-71.893538 16.278095-78.223449 34.733778 12.303789 7.956892 46.578037 28.871677 84.549219 27.132917 37.971181-1.734619 67.372765-22.39273 78.976911-29.629278-4.21856-17.366889-31.301799-33.976176-85.302681-32.237417z" fill="#F36650" p-id="11274"></path><path d="M432.073292 622.103074c-4.694649-1.941614-2.616418-11.633125-0.910778-18.662678l33.574605-1.072235c0.277373 8.714494 1.954034 16.013141-1.821557 18.749617-1.68494 1.225411-24.976029 3.415419-30.84227 0.985296zM474.300293 624.338621c-4.673949-1.987153-4.831266-15.570171-4.984442-22.285092l38.053979-0.881799c0.202855 8.714494 2.069951 19.734913-1.726339 22.438269-1.69736 1.208851-25.497656 3.208424-31.343198 0.728622z" fill="#FFFFFF" p-id="11275"></path><path d="M761.741969 498.858192l-548.537016 12.419706-4.139902 6.209853 43.468971 10.349755c110.949374 92.733805 178.015786 35.880531 194.575395-6.209853h37.259118c52.990746 94.389766 168.357395 36.567754 211.135002-4.139902l66.238432-12.419706v-6.209853z" fill="#000000" p-id="11276"></path><path d="M520.315304 537.591115a4.156462 4.156462 0 0 0-2.214848 1.204711 4.330337 4.330337 0 0 0 0.091078 6.048397c12.560463 12.477665 24.947049 18.612999 25.468677 18.869673a4.156462 4.156462 0 0 0 5.605427-1.991292 4.334477 4.334477 0 0 0-1.995432-5.713065c-0.198715-0.099358-11.753182-5.870381-23.220711-17.263392a4.181301 4.181301 0 0 0-3.734191-1.155032z m-10.912782-12.866816c-0.629265 0.124197-1.246111 0.393291-1.788438 0.819701a4.322058 4.322058 0 0 0-0.720343 5.998718l1.622842 2.11549c1.432406 1.871236 4.073664 2.218987 5.9035 0.774162 1.829837-1.444826 2.152749-4.131622 0.720343-5.998718l-1.618702-2.11549a4.202001 4.202001 0 0 0-4.119202-1.593863zM299.708206 541.946292a4.115063 4.115063 0 0 0-1.995433 1.540043 4.326198 4.326198 0 0 0 1.043255 5.957319c14.37374 10.337335 27.571747 14.444118 28.126494 14.613854a4.156462 4.156462 0 0 0 5.216277-2.852392 4.330337 4.330337 0 0 0-2.864812-5.323914c-0.215275-0.066238-12.535623-3.945327-25.659113-13.384303a4.173021 4.173021 0 0 0-3.866668-0.550607z m-12.804717-10.98316a4.123342 4.123342 0 0 0-1.639401 1.092934 4.313778 4.313778 0 0 0 0.235974 6.035977l1.937474 1.833976a4.168881 4.168881 0 0 0 5.949039-0.169736 4.313778 4.313778 0 0 0-0.235974-6.035977l-1.933334-1.833976a4.193721 4.193721 0 0 0-4.313778-0.923198z" fill="#FFFFFF" p-id="11277"></path><path d="M635.168605 103.621747c4.65739-10.594009 15.255539-17.942335 26.789306-18.542621 21.10936-1.063955 36.447697 17.391728 32.94534 36.874107a31.305939 31.305939 0 0 1-18.290087 23.415286S670.664125 306.352748 647.894664 345.681817s-315.315636 22.769461-327.880239-2.276946c-47.116225-62.293105-28.027137-198.036352-28.027137-198.036352a31.488095 31.488095 0 0 1-18.285947-23.415286c-3.37816-19.482379 11.964317-37.938062 33.069537-36.869967 11.579306 0.554747 22.173315 7.948612 26.789306 18.542621 5.170738 11.83598 2.649537 23.970033-4.272379 32.597588l3.291223 13.802434a62.611878 62.611878 0 0 0 60.885538 48.064262c32.643127 0 59.776045-25.075386 62.380044-57.590177l3.117346-39.055835a46.118508 46.118508 0 0 1-20.72021-38.496949 46.164047 46.164047 0 0 1 56.058413-45.116652c17.346189 3.630694 31.359758 17.602863 35.07739 34.907654 4.313778 20.165463-4.570452 38.708084-19.610716 48.705947l3.117347 39.051695c2.608138 32.51893 29.741056 57.598457 62.384183 57.598457 29.008293 0 54.174758-19.87153 60.885539-48.068402l3.287082-13.802434c-6.921916-8.673095-9.443116-20.761609-4.272379-32.597588z" fill="#F9C85D" p-id="11278"></path><path d="M273.361869 116.443024a31.579172 31.579172 0 1 0 63.154205 0 31.579172 31.579172 0 0 0-63.154205 0z" fill="#F9C85D" p-id="11279"></path><path d="M635.172745 103.621747c4.65739-10.598149 15.255539-17.942335 26.789306-18.542621 21.10936-1.068095 36.447697 17.387588 32.9412 36.915506a31.293519 31.293519 0 0 1-18.285947 23.415286S672.734076 314.632552 647.894664 345.681817 484.302296 368.451278 484.302296 368.451278V16.849401c3.291222 0 6.623843 0.256674 10.002003 0.981157 17.346189 3.634834 31.359758 17.607003 35.07739 34.911794 4.313778 20.161323-4.570452 38.708084-19.610716 48.705947l3.117346 39.051695c2.608138 32.51479 29.736916 57.598457 62.380044 57.598457 29.012433 0 54.178898-19.87153 60.885539-48.068402l3.291222-13.802434c-6.921916-8.673095-9.443116-20.765748-4.272379-32.601728z" fill="#FFB103" p-id="11280"></path><path d="M632.44041 116.443024a31.533634 31.533634 0 1 0 63.071407 0 31.533634 31.533634 0 0 0-63.071407 0z m-194.707872-54.307235a46.611157 46.611157 0 0 0 13.665817 32.995019 46.640136 46.640136 0 0 0 65.981758 0 46.602877 46.602877 0 0 0 13.665817-32.995019 46.652556 46.652556 0 0 0-79.647575-32.995019 46.652556 46.652556 0 0 0-13.665817 32.995019z" fill="#F9C85D" p-id="11281"></path><path d="M327.756042 94.691979c-3.721772 19.271244-19.614856 35.975748-42.388457 46.358622 5.381873 4.317918 12.134053 6.967455 19.569317 6.967455a31.583312 31.583312 0 0 0 31.575032-31.575032c0-8.420561-3.37402-16.06282-8.760032-21.751045z m359.115799 0.256673c-4.313778 19.01457-20.463536 35.338204-43.282675 45.418865 5.514349 4.702929 12.564603 7.650539 20.380737 7.650539A31.508794 31.508794 0 0 0 695.503537 116.484423a31.517074 31.517074 0 0 0-8.631696-21.535771zM516.904024 28.681241c0.985297 2.819273 1.540044 5.766883 1.540044 8.760033 0 21.95804-27.389592 39.776178-61.142213 39.776178-6.110495 0-12.005716-0.596146-17.561464-1.709779a46.635996 46.635996 0 0 0 44.694382 33.202014c25.76261 0 46.656696-20.894085 46.656696-46.656696a46.602877 46.602877 0 0 0-14.187445-33.37175z" fill="#FFB103" p-id="11282"></path><path d="M289.060378 102.739948c0.476089 0.82798 1.70978 1.167452 3.427839 0.952178 1.718059-0.215275 3.779731-0.968737 5.729624-2.094791 1.954034-1.126053 3.638974-2.53776 4.682229-3.916347 1.043255-1.378587 1.366168-2.620558 0.890079-3.444399-0.476089-0.82384-1.70978-1.167452-3.427839-0.952177-1.718059 0.215275-3.779731 0.968737-5.733764 2.09479-1.949894 1.130193-3.634834 2.53776-4.678089 3.916348-1.043255 1.382727-1.366168 2.620558-0.890079 3.444398z m379.976765-1.126053c1.954034 1.126053 4.015705 1.879516 5.733765 2.09479 1.718059 0.215275 2.95175-0.124197 3.427838-0.952177 0.476089-0.82798 0.153176-2.061671-0.890079-3.444399-1.043255-1.378587-2.728195-2.786154-4.682229-3.916347-1.949894-1.126053-4.015705-1.879516-5.729624-2.094791-1.718059-0.215275-2.95175 0.128337-3.427839 0.952178-0.476089 0.82798-0.157316 2.061671 0.890079 3.444398 1.043255 1.378587 2.728195 2.790294 4.678089 3.916348zM465.888012 29.405724c0 1.200572 1.862956 2.355604 5.179017 3.204284 3.320201 0.84868 7.820275 1.324769 12.510784 1.324769 4.690509 0 9.190582-0.476089 12.506644-1.324769 3.316062-0.84868 5.183157-2.003713 5.183158-3.204284 0-1.200572-1.867096-2.351464-5.183158-3.200144-3.316062-0.84868-7.816135-1.324769-12.506644-1.324769s-9.190582 0.476089-12.510784 1.324769c-3.316062 0.84868-5.179017 1.999573-5.179017 3.200144z" fill="#F7EAD0" p-id="11283"></path><path d="M491.344269 227.346858l23.25383 30.527638c1.850536 2.425983 2.889652 5.721345 2.889652 9.149183 0 3.436119-1.039115 6.727341-2.889652 9.157464l-23.25383 30.519357c-0.914918 1.200572-2.003713 2.152749-3.200144 2.806854A7.874094 7.874094 0 0 1 484.368535 310.49265c-1.295789 0-2.579159-0.331192-3.775591-0.985296a10.167599 10.167599 0 0 1-3.200144-2.806854l-23.25383-30.527637c-1.850536-2.425983-2.889652-5.721345-2.889651-9.149184 0-3.436119 1.039115-6.727341 2.889651-9.157463l23.25797-30.519358c0.914918-1.200572 2.003713-2.152749 3.200144-2.806853 1.196432-0.649965 2.479801-0.985297 3.77559-0.985297 1.295789 0 2.579159 0.331192 3.775591 0.985297 1.196432 0.649965 2.285226 1.606282 3.200144 2.806853h-0.00414z" fill="#C13A28" p-id="11284"></path><path d="M217.622229 702.860143c-2.483941-3.630694-6.520346-10.680947-13.611998-11.537907-0.140757 0-0.281513-0.070378-0.42227-0.070379-7.091652-0.571306-15.810286 3.775591-19.705934-6.408568-0.285653-0.42641-0.641685-0.782441-0.923198-1.212991-6.379589-8.615136-14.460678-12.105073-25.236842-7.261388-1.200572 0.993576-8.929769 7.547041-9.145044 18.58402-0.206995 8.047969 3.759031 13.889371 7.162031 17.520065 2.339045 2.492221 4.466954 3.916347 4.678089 4.061244 4.181301 3.701072 8.362602 7.335906 12.618421 11.036979l2.620558 2.351464c2.12791 1.353748 18.857254 11.608285 34.381886 4.487654 2.55018-1.212991 11.128057-5.129339 13.11107-13.53334 1.771878-7.406285-2.690936-13.885231-5.456391-17.946475l-0.070378-0.070378z m-93.926097-315.626129c-9.070525-4.702929-19.068389-0.645825-21.477812 0.42227-3.614134 2.852392-7.654679 7.19515-8.362602 12.891655-1.560743 11.893938 12.477665 19.155327 9.71221 26.847264-2.198288 6.197433-11.910498 3.204284-22.119496 12.821277-3.258103 3.059388-9.637692 9.041546-9.567313 16.733484 0 1.142613 0.211135 2.210708 0.426409 3.204284 1.912635 7.762316 9.567314 12.67638 7.654679 20.653971-0.496788 2.136189-1.560743 4.558032-2.339044 5.626127-0.85282 1.212991-1.771878 2.421843-2.624698 3.630694l-4.110923 5.626127c-7.795435 10.614709-8.789012 23.146192-8.789012 23.928633 0 3.634834 0 7.836834 2.835833 11.326772 3.684513 4.553892 9.71221 4.984442 13.115209 5.265955 10.490512 0.786581 18.5716-4.197861 21.759325-6.193293a42.429856 42.429856 0 0 0 10.705787-9.828127c3.825269-4.914064 6.234692-9.898506 8.00657-13.5292 1.134333-2.351464 1.846396-4.346897 2.483942-6.127055 0.84868-2.492221 1.27509-4.487654 1.490364-5.555749 1.345468-7.406285 0.351892-13.173168 0.206996-14.311641-2.053391-11.467529-8.292224-13.10693-7.509783-18.447403 1.27509-8.760033 18.360465-6.122915 25.874388-17.876097 7.654679-11.960177-0.356032-29.906652-5.601288-41.659834-5.315634-11.81942-9.997863-14.597294-11.769741-15.524632v0.070378z" fill="#EC596C" p-id="11285"></path><path d="M856.458787 859.824527c-2.305925-14.547616 4.23098-21.883522-0.898359-26.880384-5.700645-5.50193-18.521922-1.138473-31.790307 3.41542-9.550754 3.287082-16.278095 5.564028-21.15076 9.993723-1.473805 1.324769-2.819273 2.906211-4.036404 4.740188-3.270523 5.0631-4.23098 10.374594-4.297218 15.118922-0.062099 3.162885 0.194575 6.073236 0.451249 8.412281 1.150893 10.627128 6.665242 29.98117 17.561464 31.877245 5.125199 0.885939 8.46196-2.657817 12.817137-6.706641 3.912207-3.667953 8.718634-7.650539 16.47267-9.231981 0.707923-0.128337 1.28337-0.128337 1.987153-0.190436 15.255539-2.086511 26.793446 7.716777 29.55062 3.986726 3.138046-4.23926-13.396723-14.232983-16.667245-34.410866v-0.124197z m-48.391315-159.895435c0.128337-0.629265 0.447109-2.653677 0.256674-5.183157-0.190435-2.657817-0.898359-5.820702-2.94761-8.602717-2.181728-2.910351-4.872665-4.110923-7.886513-5.501929-2.239687-1.076375-4.996862-2.405283-8.201146-3.986726a322.142335 322.142335 0 0 1-12.113353-6.387869c-6.027697-4.615991-14.295082-4.996862-20.384878-0.948037-5.319774 3.539616-8.205286 9.993723-7.306927 16.505789 1.411707 1.838116 3.204284 4.491794 5.001002 7.716777 0.898359 1.581443 1.730479 3.291222 2.562599 5.249396 5.319774 12.27067 2.757175 17.395868 6.731481 20.935484 0.447109 0.380871 0.960457 0.695504 1.535903 1.014276 10.705787 6.006998 39.738919-5.315634 42.69067-20.811287h0.062098z" fill="#F1670D" p-id="11286"></path><path d="M748.047173 325.118924c9.993723 5.116919 26.528492 8.4454 33.193734 0.952178 5.112779-5.713065-0.952177-11.662104 2.376304-29.028993 2.736475-14.158465 8.565457-19.747333 5.236976-24.50822-3.452678-4.876805-10.469812-0.476089-18.443263-5.472951-11.778021-7.257248-7.849254-24.152188-15.822706-26.648549-7.373165-2.380444-17.607003 10.109641-21.771744 16.298794-6.781159 10.349755-11.181875 25.936486-6.185014 41.759192 1.188152 3.924627 6.185014 18.795155 21.295656 26.648549h0.120057z" fill="#79E1C0" p-id="11287"></path><path d="M877.303193 449.295285c-8.329483 16.06282-2.736475 31.289379 15.106503 39.738919 34.742058 21.651687 44.259692 6.064956 41.523217-27.840841 2.736475-16.298794 0.476089-29.505082-19.751472-30.573176-15.702648-0.83626-30.217145 5.944899-36.878248 18.675098z" fill="#F9E880" p-id="11288"></path><path d="M152.609208 886.597273c-3.452678-2.380444-4.760887-0.356032-15.706789-2.856532-13.798293-3.092507-16.178737-7.373165-22.243693-5.708925-4.760887 1.308209-4.284799 4.400716-12.730199 12.730199-3.092507 3.092507-5.588868 5.116919-7.617419 6.541045-4.63669 3.332621-7.017134 3.928767-9.157464 7.973451-4.520773 8.4454-2.380444 21.415713 5.116919 29.385025 6.897077 7.377305 16.294654 8.089369 24.148049 8.089368h2.616418c7.257248 0 24.272245 0 34.742057-12.850256 11.301932-13.798293 10.349755-36.878247 1.068095-43.423432l-0.235974 0.120057zM525.10103 1018.647728c17.006717 6.425128 33.086097 7.956892 44.131356-0.393291 1.573163-1.175732 8.983587-6.814279 8.072809-12.978593-1.026696-6.847398-11.260533-8.064529-25.212004-10.660247a180.594945 180.594945 0 0 1-16.062819-3.667954l-3.605855-1.059815c-9.915065-3.150465-20.26068-7.932052-29.852833-16.075239-13.781734-11.662104-22.636984-18.16175-40.260547-31.103084-3.345041-2.425983-10.254537-7.414564-15.135482-5.083799-4.168881 1.999573-5.220416 8.594437-5.386013 9.70807 0 0-0.786581 4.938903 1.146753 10.10964 3.084227 8.370882 32.552049 35.756334 63.766911 52.713373 6.127055 3.316062 12.320348 6.247112 18.414284 8.565457l-0.01656-0.074518z" fill="#67A3D5" p-id="11289"></path></svg>